<?xml version="1.0" encoding="UTF-8" standalone="no"?>
<svg width="32px" height="38px" viewBox="0 0 32 38" version="1.1" xmlns="http://www.w3.org/2000/svg" xmlns:xlink="http://www.w3.org/1999/xlink">
    <!-- Generator: Sketch 45.1 (43504) - http://www.bohemiancoding.com/sketch -->
    <title>Group</title>
    <desc>Created with Sketch.</desc>
    <defs>
        <rect id="path-1" x="0" y="5.62962963" width="32" height="32.3703704" rx="2"></rect>
    </defs>
    <g id="layla_2" stroke="none" stroke-width="1" fill="none" fill-rule="evenodd">
        <g id="iPhone-7-Copy-6" transform="translate(-282.000000, -240.000000)">
            <g id="Group" transform="translate(282.000000, 240.000000)">
                <g id="Rectangle-6-Copy-2">
                    <use fill="#FFFFFF" fill-rule="evenodd" xlink:href="#path-1"></use>
                    <rect stroke="#FFFFFF" stroke-width="2" x="1" y="6.62962963" width="30" height="30.3703704" rx="2"></rect>
                </g>
                <rect id="Rectangle-13" fill="#D0ECD3" x="22.9565217" y="0" width="5.56521739" height="28.1481481" rx="1"></rect>
                <rect id="Rectangle-14" fill="#D0ECD3" opacity="0.54011194" x="1.39130435" y="9.85185185" width="18.0869565" height="2.81481481" rx="1.40740741"></rect>
                <rect id="Rectangle-14-Copy" fill="#D0ECD3" opacity="0.54011194" x="1.39130435" y="15.4814815" width="18.0869565" height="2.81481481" rx="1.40740741"></rect>
                <rect id="Rectangle-14-Copy-2" fill="#D0ECD3" opacity="0.54011194" x="1.39130435" y="21.1111111" width="11.1304348" height="2.81481481" rx="1.40740741"></rect>
                <path d="M24.2013585,27.2982692 L28.1000674,31.242102 L28.1000674,31.242102 C28.2942028,31.4384844 28.2923813,31.7550617 28.0959989,31.9491971 C28.0024015,32.0417236 27.8760972,32.0936154 27.7444856,32.0936154 L23.5457767,32.0936154 L23.5457767,32.0936154 C23.4353198,32.0936154 23.3457767,32.0040723 23.3457767,31.8936154 L23.3457767,27.6497825 L23.3457767,27.6497825 C23.3457767,27.3736402 23.5696344,27.1497825 23.8457767,27.1497825 C23.9793822,27.1497825 24.1074303,27.2032539 24.2013585,27.2982692 Z" id="Rectangle-15" fill="#D0ECD3" transform="translate(25.795131, 29.621699) rotate(-45.000000) translate(-25.795131, -29.621699) "></path>
            </g>
        </g>
    </g>
</svg>