<?xml version="1.0" encoding="UTF-8" standalone="no"?>
<svg width="33px" height="33px" viewBox="0 0 33 33" version="1.1" xmlns="http://www.w3.org/2000/svg" xmlns:xlink="http://www.w3.org/1999/xlink">
    <!-- Generator: Sketch 45.1 (43504) - http://www.bohemiancoding.com/sketch -->
    <title>BTNmood</title>
    <desc>Created with Sketch.</desc>
    <defs></defs>
    <g id="layla_2" stroke="none" stroke-width="1" fill="none" fill-rule="evenodd">
        <g id="iPhone-7-Copy-6" transform="translate(-170.000000, -611.000000)" fill="#FFFFFF">
            <g id="BTNmood" transform="translate(170.000000, 611.000000)">
                <g id="BTNmood-Copy">
                    <path d="M16.5,33 C7.38730163,33 0,25.6126984 0,16.5 C0,7.38730163 7.38730163,0 16.5,0 C25.6126984,0 33,7.38730163 33,16.5 C33,25.6126984 25.6126984,33 16.5,33 Z M16.5,30.8 C24.3976719,30.8 30.8,24.3976719 30.8,16.5 C30.8,8.60232808 24.3976719,2.2 16.5,2.2 C8.60232808,2.2 2.2,8.60232808 2.2,16.5 C2.2,24.3976719 8.60232808,30.8 16.5,30.8 Z" id="Combined-Shape"></path>
                    <path d="M16.5,28.6 C9.81735453,28.6 4.4,23.1826455 4.4,16.5 C4.4,9.81735453 9.81735453,4.4 16.5,4.4 C23.1826455,4.4 28.6,9.81735453 28.6,16.5 C28.6,23.1826455 23.1826455,28.6 16.5,28.6 Z M16.5,26.9866667 C22.2916261,26.9866667 26.9866667,22.2916261 26.9866667,16.5 C26.9866667,10.7083739 22.2916261,6.01333333 16.5,6.01333333 C10.7083739,6.01333333 6.01333333,10.7083739 6.01333333,16.5 C6.01333333,22.2916261 10.7083739,26.9866667 16.5,26.9866667 Z" id="Combined-Shape-Copy-5"></path>
                    <circle id="Combined-Shape" cx="16.5" cy="16.5" r="5.5"></circle>
                </g>
            </g>
        </g>
    </g>
</svg>